<svg class="fixed z-[-1] h-full w-full left-0 top-0 right-0 bottom-0" xmlns="http://www.w3.org/2000/svg"
  version="1.1"
  xmlns:xlink="http://www.w3.org/1999/xlink" xmlns:svgjs="http://svgjs.com/svgjs" width="1440" height="560"
  preserveAspectRatio="none" viewBox="0 0 1440 560">
  <g mask="url(&quot;#SvgjsMask1173&quot;)" fill="none">
    <rect width="1440" height="560" x="0" y="0" fill="url(#SvgjsLinearGradient1174)"></rect>
    <path
      d="M 0,63 C 57.6,104.4 172.8,266.6 288,270 C 403.2,273.4 460.8,100.2 576,80 C 691.2,59.8 748.8,170.4 864,169 C 979.2,167.6 1036.8,78 1152,73 C 1267.2,68 1382.4,129.8 1440,144L1440 560L0 560z"
      fill="rgba(86, 96, 114, 1)"></path>
    <path
      d="M 0,370 C 96,401 288,531.2 480,525 C 672,518.8 768,339.6 960,339 C 1152,338.4 1344,485.4 1440,522L1440 560L0 560z"
      fill="rgba(42, 51, 70, 1)"></path>
  </g>
  <defs>
    <mask id="SvgjsMask1173">
      <rect width="1440" height="560" fill="#ffffff"></rect>
    </mask>
    <linearGradient x1="15.28%" y1="-39.29%" x2="84.72%" y2="139.29%" gradientUnits="userSpaceOnUse"
      id="SvgjsLinearGradient1174">
      <stop stop-color="#0e2a47" offset="0"></stop>
      <stop stop-color="rgba(0, 0, 0, 0.9)" offset="1"></stop>
    </linearGradient>
  </defs>
</svg>